<svg xmlns:xlink="http://www.w3.org/1999/xlink" xmlns="http://www.w3.org/2000/svg" width="161" height="36" viewBox="0 0 161 36" fill="none">
<g clip-path="url(#clip0_0_37327)">
<path d="M88.4133 28.5539V9.26199C88.4133 8.92849 88.6042 8.62385 88.9066 8.47954L89.8932 8.01135C90.0078 7.95684 90.1319 7.92798 90.2592 7.92798H95.9784C97.5474 7.92798 98.9923 8.20376 100.313 8.76174C102.675 9.74621 103.855 11.1989 103.855 13.1133V24.2344C103.855 26.152 102.675 27.6014 100.313 28.5859C98.9923 29.1407 97.5474 29.4197 95.9784 29.4197H89.2726C88.7984 29.4197 88.4133 29.0317 88.4133 28.5539ZM91.5322 25.7255C91.5322 26.2033 91.9173 26.5913 92.3915 26.5913H95.9784C97.0159 26.5913 97.9739 26.4182 98.8491 26.0718C100.106 25.5684 100.736 24.9559 100.736 24.2344V13.1133C100.736 12.3918 100.106 11.7761 98.8491 11.2726C97.9866 10.9263 97.0286 10.7531 95.9784 10.7531H92.3915C91.9173 10.7531 91.5322 11.1412 91.5322 11.619V25.7255Z" fill="white"/>
<path d="M107.184 25.8857V19.8506C107.184 18.4685 108.155 17.3878 110.1 16.6118C111.15 16.2045 112.334 15.9993 113.655 15.9993C114.975 15.9993 116.159 16.2045 117.21 16.6118C119.154 17.3878 120.125 18.4653 120.125 19.8506V25.8857C120.125 27.2678 119.154 28.3485 117.21 29.1213C116.159 29.5286 114.972 29.7338 113.655 29.7338C112.337 29.7338 111.15 29.5286 110.1 29.1213C108.155 28.3453 107.184 27.2678 107.184 25.8857ZM110.303 25.3341C110.303 25.8601 110.628 26.2513 111.277 26.5142C111.926 26.7772 112.719 26.9055 113.655 26.9055C114.59 26.9055 115.383 26.774 116.032 26.5142C116.681 26.2513 117.006 25.8601 117.006 25.3341V20.4021C117.006 19.8794 116.681 19.485 116.032 19.2253C115.383 18.9623 114.59 18.8308 113.655 18.8308C112.719 18.8308 111.926 18.9623 111.277 19.2253C110.628 19.4882 110.303 19.8794 110.303 20.4021V25.3341Z" fill="white"/>
<path d="M124.418 17.1666C124.418 16.8299 124.609 16.5253 124.912 16.3842L127.381 15.2041H127.537V31.5522C127.537 32.9567 126.563 34.0342 124.622 34.791C123.572 35.1983 122.388 35.4035 121.067 35.4035V35.2464L122.165 32.899C122.28 32.6553 122.49 32.4661 122.747 32.4052C122.996 32.3474 123.231 32.2737 123.451 32.1807C124.097 31.9081 124.418 31.5169 124.418 31.0038V17.1698V17.1666Z" fill="white"/>
<path d="M127.54 12.1929V8.20044H127.384L124.915 9.38053C124.612 9.52483 124.421 9.82947 124.421 10.163V14.2227C125.462 13.5461 126.522 12.9048 127.54 12.1929Z" fill="#A6A4FF"/>
<path d="M131.812 25.8857V19.8506C131.812 18.4685 132.782 17.3878 134.727 16.6118C135.777 16.2045 136.961 15.9993 138.282 15.9993C139.603 15.9993 140.787 16.2045 141.837 16.6118C143.781 17.3878 144.752 18.4653 144.752 19.8506V25.8857C144.752 27.2678 143.781 28.3485 141.837 29.1213C140.787 29.5286 139.599 29.7338 138.282 29.7338C136.964 29.7338 135.777 29.5286 134.727 29.1213C132.782 28.3453 131.812 27.2678 131.812 25.8857ZM134.93 25.3341C134.93 25.8601 135.255 26.2513 135.904 26.5142C136.554 26.7772 137.346 26.9055 138.282 26.9055C139.217 26.9055 140.01 26.774 140.659 26.5142C141.308 26.2513 141.633 25.8601 141.633 25.3341V20.4021C141.633 19.8794 141.308 19.485 140.659 19.2253C140.01 18.9623 139.217 18.8308 138.282 18.8308C137.346 18.8308 136.554 18.9623 135.904 19.2253C135.255 19.4882 134.93 19.8794 134.93 20.4021V25.3341Z" fill="white"/>
<path d="M40.3143 28.4833V8.3352C40.3143 8.11393 40.4416 7.9087 40.6421 7.8157L41.8801 7.22566C41.9565 7.19038 42.0393 7.17114 42.1252 7.17114H48.0067C49.3497 7.17114 50.5814 7.45334 51.7017 8.01773C53.624 9.00862 54.5883 10.4837 54.5883 12.4431V13.3602C54.5883 14.3831 54.1269 15.3901 53.2071 16.381C52.9493 16.6567 53.0225 17.1057 53.3535 17.2853C55.1294 18.2377 56.0173 19.4883 56.0173 21.0276V23.7854C56.0173 25.7222 54.8175 27.1974 52.4178 28.2107C51.0747 28.7751 49.6075 29.0573 48.0099 29.0573H40.8903C40.5752 29.0573 40.3206 28.8007 40.3206 28.4833H40.3143ZM43.4842 15.1816C43.4842 15.4991 43.7388 15.7556 44.0539 15.7556H48.0003C48.8978 15.7556 49.633 15.5793 50.2027 15.2297C51.0047 14.7199 51.4089 14.0945 51.4089 13.3602V12.4431C51.4089 11.5484 50.9856 10.9263 50.139 10.5735C49.2924 10.2208 48.5795 10.0476 48.0003 10.0476H44.0539C43.7388 10.0476 43.4842 10.3041 43.4842 10.6216V15.1784V15.1816ZM43.4842 25.6068C43.4842 25.9243 43.7388 26.1808 44.0539 26.1808H48.0003C49.0569 26.1808 50.0308 26.0044 50.9188 25.6549C52.1982 25.1547 52.8379 24.5325 52.8379 23.7854V21.0276C52.8379 20.2932 52.1982 19.6711 50.9188 19.158C50.0308 18.8053 49.0569 18.6321 48.0003 18.6321H44.0539C43.7388 18.6321 43.4842 18.8886 43.4842 19.2061V25.6068Z" fill="white"/>
<path d="M59.4546 25.4625V19.2606C59.4546 17.8561 60.4444 16.7594 62.4208 15.9705C63.487 15.5568 64.6932 15.3484 66.0363 15.3484C67.3793 15.3484 68.5824 15.5568 69.6517 15.9705C71.6281 16.7594 72.6179 17.8561 72.6179 19.2606V25.4625C72.6179 26.8671 71.6281 27.967 69.6517 28.7526C68.5824 29.1663 67.3793 29.3748 66.0363 29.3748C64.6932 29.3748 63.4902 29.1663 62.4208 28.7526C60.4444 27.9638 59.4546 26.8671 59.4546 25.4625ZM62.6245 24.9045C62.6245 25.4369 62.9555 25.8377 63.6143 26.1039C64.2763 26.37 65.0815 26.5047 66.0331 26.5047C66.9847 26.5047 67.7899 26.3732 68.4519 26.1039C69.1139 25.8377 69.4417 25.4401 69.4417 24.9045V19.8186C69.4417 19.2863 69.1107 18.8854 68.4519 18.6193C67.7899 18.3531 66.9847 18.2184 66.0331 18.2184C65.0815 18.2184 64.2763 18.3531 63.6143 18.6193C62.9523 18.8854 62.6245 19.2831 62.6245 19.8186V24.9045Z" fill="white"/>
<path d="M78.2957 29.6954V16.6278H74.2219V16.4675L75.5077 13.7193H78.2989V7.96959L81.3128 6.53296H81.4719V13.7225H85.5457V13.8829L84.2631 16.631H81.4719V28.262L78.458 29.6986H78.2989L78.2957 29.6954Z" fill="white"/>
<path d="M34.3247 19.8764C34.3947 19.2446 34.4297 18.6065 34.4297 17.9587C34.4297 17.3109 34.3947 16.6696 34.3247 16.0411L32.0141 15.7845C31.8995 14.9828 31.7213 14.2036 31.489 13.4468L33.4622 12.2058C33.0357 10.984 32.4788 9.82637 31.8072 8.7489L29.6144 9.52814C29.1688 8.86434 28.6723 8.23902 28.1313 7.6586L29.3757 5.67682C28.475 4.77252 27.4789 3.97083 26.3999 3.28458L24.7609 4.94568C24.0798 4.54484 23.3637 4.1953 22.619 3.90349L22.8863 1.57538C21.7024 1.1585 20.458 0.86989 19.1722 0.725586L18.4084 2.94146C18.0169 2.90939 17.6191 2.89336 17.2213 2.89336C16.8234 2.89336 16.4256 2.90939 16.0341 2.94146L15.2703 0.725586C13.9845 0.873097 12.7401 1.16171 11.5562 1.57538L11.8235 3.90349C11.0788 4.1953 10.3627 4.54163 9.68163 4.94568L8.04258 3.28458C6.96367 3.97083 5.96432 4.77572 5.06682 5.67682L6.31123 7.6586C5.77018 8.24223 5.27369 8.86755 4.82813 9.52814L2.6353 8.7489C1.96377 9.82637 1.40681 10.984 0.980335 12.2058L2.95356 13.4468C2.71805 14.2004 2.543 14.9828 2.42843 15.7845L0.117844 16.0411C0.0478262 16.6728 0.0128174 17.3109 0.0128174 17.9587C0.0128174 18.6065 0.0478262 19.2478 0.117844 19.8764L2.42843 20.1329C2.543 20.9346 2.72123 21.7138 2.95356 22.4706L0.980335 23.7116C1.40681 24.9334 1.96377 26.0911 2.6353 27.1685L4.82813 26.3893C5.27369 27.0531 5.77018 27.6784 6.31123 28.2588L5.06682 30.2406C5.96751 31.1449 6.96367 31.9466 8.04258 32.6328L9.68163 30.9717C10.3627 31.3726 11.0788 31.7221 11.8235 32.0139L11.5562 34.342C12.7401 34.7589 13.9845 35.0475 15.2703 35.1918L16.0341 32.976C16.4256 33.008 16.8234 33.0241 17.2213 33.0241C17.6191 33.0241 18.0169 33.008 18.4084 32.976L19.1722 35.1918C20.458 35.0443 21.7024 34.7557 22.8863 34.342L22.619 32.0139C23.3637 31.7221 24.0798 31.3758 24.7609 30.9717L26.3999 32.6328C27.4789 31.9466 28.4782 31.1417 29.3757 30.2406L28.1313 28.2588C28.6723 27.6752 29.1688 27.0499 29.6144 26.3893L31.8072 27.1685C32.4788 26.0911 33.0357 24.9334 33.4622 23.7116L31.489 22.4706C31.7245 21.717 31.8995 20.9346 32.0141 20.1329L34.3247 19.8764ZM17.2149 31.3277C9.88531 31.3277 3.94336 25.3407 3.94336 17.9555C3.94336 10.5703 9.88531 4.58652 17.2149 4.58652C24.5445 4.58652 30.4864 10.5735 30.4864 17.9587C30.4864 25.3439 24.5445 31.3309 17.2149 31.3309V31.3277Z" fill="#7267EF"/>
<path d="M23.2077 16.7241H22.3166C21.7724 17.4713 20.7476 18.2473 18.8475 18.2954C19.3217 18.738 19.71 19.2094 19.9264 19.7224C21.9856 19.3601 22.8481 17.8946 23.2077 16.7241Z" fill="#A6A4FF"/>
<path d="M17.8259 11.9106C17.9596 12.6065 18.2238 13.3986 18.733 13.87C18.8889 13.8026 19.0544 13.7577 19.2326 13.7481C19.4268 13.4595 19.6973 13.235 20.0092 13.0939C19.2517 12.9721 18.8253 12.4462 18.5866 11.9106H17.8259Z" fill="#A6A4FF"/>
<path d="M25.2287 20.8768H22.6126C22.6126 20.8768 22.6062 20.8768 22.603 20.8768H19.6846C19.6973 20.7871 19.7005 20.6973 19.6973 20.6075C19.6941 20.4247 19.6623 20.2451 19.605 20.0687C19.5764 19.9822 19.5414 19.8956 19.5032 19.809C19.5 19.7994 19.4936 19.7898 19.4872 19.7801C19.4109 19.6198 19.3154 19.4627 19.204 19.3087C19.0703 19.1292 18.9144 18.9528 18.7457 18.7796C18.6852 18.7187 18.6216 18.6546 18.5579 18.5936C18.4752 18.5167 18.3892 18.4397 18.3001 18.3659C18.0328 18.1383 17.7432 17.9202 17.444 17.7054C17.2435 17.5611 17.0398 17.42 16.8329 17.2821C16.6261 17.1442 16.4192 17.0063 16.2155 16.8716C16.1423 16.8235 16.0723 16.7754 15.9991 16.7273H13.9686C14.0895 16.8684 14.2105 17.0063 14.3314 17.1442C14.5192 17.3558 14.7069 17.5643 14.8852 17.7599C14.9743 17.8593 15.0634 17.9555 15.1461 18.0485C15.2575 18.1735 15.3498 18.2954 15.423 18.4141C15.4962 18.5327 15.5503 18.6481 15.5885 18.7604C15.6617 18.9784 15.6745 19.1805 15.6395 19.3697C15.6395 19.3857 15.6331 19.4017 15.6299 19.4146C15.6013 19.5492 15.5503 19.6775 15.4771 19.7962C15.4262 19.886 15.3626 19.9693 15.2925 20.0527C15.1525 20.2162 14.9838 20.3638 14.8056 20.492C14.7483 20.5337 14.691 20.5722 14.6306 20.6107C14.4683 20.7165 14.3028 20.8063 14.15 20.8833H11.9667C11.9667 20.8833 11.9603 20.8833 11.9572 20.8833H9.34104C8.97823 20.8833 8.68542 21.1783 8.68542 21.5438C8.68542 21.9094 8.97823 22.2044 9.34104 22.2044H10.1081L11.1169 24.7827C11.6071 26.0397 12.6446 26.8671 13.784 26.9344C13.7553 27.0883 13.6662 27.2839 13.3957 27.3994C12.9024 27.6046 12.3741 27.4603 12.3741 28.2299H14.9011L15.875 26.9408H19.0894L20.0633 28.2299H22.5903C22.5903 27.4603 22.062 27.6046 21.5687 27.3994C21.2632 27.2711 21.1868 27.037 21.1709 26.8735C22.1384 26.6522 22.985 25.8826 23.4146 24.7827L24.4235 22.2044H25.216C25.5788 22.2044 25.8716 21.9094 25.8716 21.5438C25.8716 21.1783 25.5788 20.8833 25.216 20.8833L25.2287 20.8768ZM13.7776 23.904C13.7776 23.6443 13.9877 23.4326 14.2455 23.4326H20.6139C20.8717 23.4326 21.0817 23.6443 21.0817 23.904C21.0817 24.1638 20.8717 24.3754 20.6139 24.3754H14.2455C13.9877 24.3754 13.7776 24.1638 13.7776 23.904Z" fill="#A6A4FF"/>
<path d="M9.74527 11.3464C10.315 10.7916 11.0852 10.4581 11.9063 10.4581C12.7974 10.4581 13.6312 10.8493 14.2105 11.4939H22.5681C22.6285 11.4907 22.689 11.4811 22.7495 11.4811C22.8099 11.4811 22.8704 11.4907 22.9341 11.4939H22.9977C23.0773 11.4939 23.1537 11.4843 23.23 11.4715C23.7552 11.3624 24.1498 10.8942 24.1498 10.3363C24.1498 9.77829 23.7552 9.30689 23.23 9.20107C23.1537 9.18504 23.0773 9.17862 22.9977 9.17862C22.8386 9.17862 22.689 9.21069 22.549 9.26841C22.4121 9.32613 22.288 9.41272 22.183 9.51533C22.1479 9.42234 22.1002 9.33255 22.0493 9.24917C21.9856 9.14656 21.9124 9.04715 21.8265 8.96377C21.5655 8.71044 21.2091 8.5533 20.8176 8.5533C20.563 8.5533 20.3243 8.62065 20.1174 8.73288C20.0474 8.77136 19.9838 8.81626 19.9201 8.86436C19.8087 8.65913 19.656 8.47634 19.4745 8.32883C19.3536 8.22942 19.2199 8.14925 19.0767 8.08512C19.0035 8.05305 18.9303 8.0274 18.8539 8.00495C18.7012 7.96005 18.5389 7.93761 18.3734 7.93761C18.3256 7.81254 18.2715 7.69069 18.2079 7.57524C18.1442 7.4598 18.071 7.34756 17.9914 7.24495C17.9501 7.19364 17.9087 7.14233 17.8673 7.09423C17.7368 6.94672 17.5904 6.81524 17.4313 6.6998C17.0048 6.39515 16.4829 6.21558 15.9196 6.21558C15.5663 6.21558 15.2321 6.28613 14.9234 6.4144C14.8629 6.44005 14.8025 6.46891 14.742 6.49777C14.6592 6.53946 14.5797 6.58756 14.5033 6.63566C14.4142 6.69338 14.3282 6.75431 14.2487 6.82165C14.1978 6.86334 14.15 6.90824 14.1023 6.95313C13.9622 7.09102 13.8349 7.24174 13.7267 7.40849C13.6917 7.46301 13.6567 7.52073 13.6249 7.57845C13.5612 7.69389 13.5071 7.81575 13.4594 7.94081C13.3766 7.94723 13.2971 7.95685 13.2175 7.97288C13.1379 7.98892 13.0616 8.01136 12.9884 8.03702C12.5428 8.19094 12.18 8.52124 11.9763 8.94453C11.919 8.93491 11.8617 8.92529 11.8012 8.92529C11.6135 8.92529 11.4352 8.97018 11.2761 9.04394C11.1997 9.07921 11.1233 9.1209 11.0565 9.169C11.0056 9.20748 10.9547 9.24917 10.9101 9.29407C10.8178 9.38706 10.7414 9.48968 10.6778 9.60833C10.6459 9.66605 10.6205 9.72698 10.5982 9.79111C10.5409 9.76546 10.4836 9.74301 10.42 9.73019C10.3595 9.71415 10.2927 9.70774 10.2258 9.70774C9.98078 9.70774 9.758 9.80715 9.59887 9.97069C9.43973 10.131 9.33789 10.3555 9.33789 10.6024C9.33789 10.9135 9.49702 11.1861 9.73572 11.3464H9.74527Z" fill="#A6A4FF"/>
<path d="M13.6217 16.3072H16.2474C16.5179 16.3072 16.7693 16.2238 16.9794 16.0827C17.3263 15.8454 17.5555 15.4446 17.5555 14.9892C17.5555 14.5338 17.3263 14.133 16.9794 13.8957C16.7693 13.7546 16.5179 13.6712 16.2474 13.6712C16.1869 13.6712 16.1265 13.6808 16.066 13.6905C15.9196 13.3826 15.6904 13.1261 15.4104 12.9433C15.1271 12.7605 14.7929 12.6547 14.4333 12.6547C14.4206 12.6162 14.4015 12.5809 14.3887 12.5424C14.2996 12.3276 14.1819 12.1256 14.0418 11.9396C14.0355 11.9332 14.0291 11.9235 14.0227 11.9171C13.9018 11.7632 13.7681 11.6253 13.6185 11.5003C13.1539 11.1122 12.5587 10.8813 11.9095 10.8813C11.4416 10.8813 11.0024 11.0032 10.6205 11.2149C10.4837 11.2918 10.3532 11.3784 10.2291 11.4778C10.2195 11.4842 10.21 11.4906 10.2036 11.497C10.0986 11.5836 9.9999 11.6798 9.90761 11.7824C9.88851 11.8049 9.86942 11.8305 9.85032 11.853C9.653 12.0903 9.49068 12.3629 9.38247 12.6611C9.29973 12.6675 9.21698 12.6771 9.13423 12.6932C8.97192 12.7252 8.81915 12.7798 8.67593 12.8535C8.31948 13.0331 8.02986 13.3313 7.858 13.6937C7.79753 13.6841 7.74024 13.6744 7.67659 13.6744C7.40607 13.6744 7.15464 13.7578 6.94458 13.8989C6.80455 13.9951 6.68361 14.1138 6.59131 14.2549C6.49583 14.396 6.429 14.5563 6.39399 14.7263C6.37808 14.8128 6.36853 14.9026 6.36853 14.9924C6.36853 15.265 6.45128 15.5183 6.59131 15.73C6.68679 15.8711 6.80455 15.9929 6.94458 16.0859C7.15464 16.227 7.40607 16.3104 7.67659 16.3104H13.6217V16.3072Z" fill="#A6A4FF"/>
<path d="M26.1262 14.178C26.0657 14.0529 25.9893 13.9375 25.9002 13.8349C25.8111 13.7322 25.7061 13.6425 25.5915 13.5687C25.4928 13.5046 25.3846 13.4565 25.2732 13.4148C25.2446 13.4052 25.2128 13.3955 25.1841 13.3859C25.0632 13.3539 24.9327 13.3314 24.8022 13.3314C24.7513 13.1903 24.6813 13.0588 24.6017 12.9338C24.5062 12.7798 24.3948 12.6323 24.2643 12.5073C24.1084 12.3565 23.927 12.2251 23.7328 12.1257C23.5355 12.0263 23.3223 11.9557 23.0995 11.9204C23.0422 11.9108 22.9817 11.9108 22.9213 11.9076C22.864 11.9044 22.8099 11.8948 22.7526 11.8948C22.6953 11.8948 22.6412 11.9044 22.5839 11.9076C22.2243 11.9365 21.8901 12.0487 21.6005 12.2315C21.47 12.3149 21.3459 12.4046 21.2377 12.5105C21.2281 12.5201 21.2218 12.5297 21.2154 12.5361C20.9926 12.7606 20.8144 13.0332 20.703 13.3346C20.6616 13.3346 20.6234 13.3442 20.5821 13.3506C20.4898 13.3635 20.3975 13.3827 20.3115 13.4148C20.2511 13.4372 20.1906 13.4629 20.1301 13.4917C19.8405 13.6393 19.605 13.8798 19.465 14.1748C19.4172 14.1684 19.3695 14.1587 19.3186 14.1587C19.2804 14.1587 19.2453 14.1652 19.2072 14.1716C19.1021 14.1812 18.9971 14.2036 18.9048 14.2453C18.5229 14.4089 18.2556 14.7873 18.2556 15.233C18.2556 15.6788 18.5229 16.0572 18.9048 16.2207C19.0321 16.2752 19.1721 16.3041 19.3186 16.3041H26.2758C26.4222 16.3041 26.5622 16.2752 26.6895 16.2207C27.0714 16.0572 27.3388 15.6788 27.3388 15.233C27.3388 14.7873 27.0714 14.4089 26.6895 14.2453C26.5622 14.1908 26.4222 14.162 26.2758 14.162C26.2248 14.162 26.1771 14.1716 26.1294 14.178H26.1262Z" fill="#A6A4FF"/>
</g>
<defs>
<clipPath id="clip0_0_37327">
<rect width="144.755" height="34.6779" fill="white" transform="translate(0 0.722412)"/>
</clipPath>
</defs>
</svg>