<svg xmlns="http://www.w3.org/2000/svg" data-name="Layer 1" viewBox="0 0 491.9 250">
    <path fill="#1c3c3c"
        d="M393.52 75.2c9.66 9.66 9.66 25.38 0 35.04l-21.64 21.29-.22-1.22a43.19 43.19 0 0 0-12.02-22.97c-4.73-4.72-10.32-8.21-16.62-10.37-3.91 3.93-6.06 9.08-6.06 14.5 0 1.1.1 2.24.3 3.38 3.47 1.25 6.54 3.18 9.12 5.76 9.66 9.66 9.66 25.38 0 35.04l-18.84 18.84c-4.83 4.83-11.17 7.24-17.52 7.24s-12.69-2.41-17.52-7.24c-9.66-9.66-9.66-25.38 0-35.04l21.64-21.28.22 1.22c1.57 8.73 5.73 16.67 12.03 22.96 4.74 4.74 9.99 7.89 16.28 10.04l1.16-1.16c3.52-3.52 5.45-8.2 5.45-13.19 0-1.11-.1-2.22-.29-3.31-3.63-1.2-6.62-2.91-9.34-5.63-3.92-3.92-6.36-8.93-7.04-14.48-.05-.4-.08-.79-.12-1.19-.54-7.23 2.07-14.29 7.16-19.37l18.84-18.84c4.67-4.67 10.89-7.25 17.52-7.25s12.85 2.57 17.52 7.25ZM491.9 125c0 68.93-56.08 125-125 125H125C56.08 250 0 193.93 0 125S56.08 0 125 0h241.9c68.93 0 125 56.08 125 125Zm-251 62.69c1.97-2.39-7.13-9.12-8.99-11.59-3.78-4.1-3.8-10-6.35-14.79-6.24-14.46-13.41-28.81-23.44-41.05-10.6-13.39-23.68-24.47-35.17-37.04-8.53-8.77-10.81-21.26-18.34-30.69-10.38-15.33-43.2-19.51-48.01 2.14.02.68-.19 1.11-.78 1.54-2.66 1.93-5.03 4.14-7.02 6.81-4.87 6.78-5.62 18.28.46 24.37.2-3.21.31-6.24 2.85-8.54 4.7 4.03 11.8 5.46 17.25 2.45 12.04 17.19 9.04 40.97 18.6 59.49 2.64 4.38 5.3 8.85 8.69 12.69 2.75 4.28 12.25 9.33 12.81 13.29.1 6.8-.7 14.23 3.76 19.92 2.1 4.26-3.06 8.54-7.22 8.01-5.4.74-11.99-3.63-16.72-.94-1.67 1.81-4.94-.19-6.38 2.32-.5 1.3-3.2 3.13-1.59 4.38 1.79-1.36 3.45-2.78 5.86-1.97-.36 1.96 1.19 2.24 2.42 2.81-.04 1.33-.82 2.69.2 3.82 1.19-1.2 1.9-2.9 3.79-3.4 6.28 8.37 12.67-8.47 26.26-.89-2.76-.14-5.21.21-7.07 2.48-.46.51-.85 1.11-.04 1.77 7.33-4.73 7.29 1.62 12.05-.33 3.66-1.91 7.3-4.3 11.65-3.62-4.23 1.22-4.4 4.62-6.88 7.49-.42.44-.62.94-.13 1.67 8.78-.74 9.5-3.66 16.59-7.24 5.29-3.23 10.56 4.6 15.14.14 1.01-.97 2.39-.64 3.64-.77-1.6-8.53-19.19 1.56-18.91-9.88 5.66-3.85 4.36-11.22 4.74-17.17 6.51 3.61 13.75 5.71 20.13 9.16 3.22 5.2 8.27 12.07 15 11.62.18-.52.34-.98.53-1.51 2.04.35 4.66 1.7 5.78-.88 3.05 3.19 7.53 3.03 11.52 2.21 2.95-2.4-5.55-5.82-6.69-8.29Zm178.61-94.97c0-11.64-4.52-22.57-12.73-30.78s-19.14-12.73-30.79-12.73-22.58 4.52-30.79 12.73l-18.84 18.84c-4.4 4.4-7.74 9.57-9.93 15.36l-.13.33-.34.1c-6.84 2.11-12.87 5.73-17.92 10.78l-18.84 18.84c-16.97 16.98-16.97 44.6 0 61.57 8.21 8.21 19.14 12.73 30.78 12.73s22.58-4.52 30.79-12.73l18.84-18.84a43.09 43.09 0 0 0 9.89-15.31l.13-.33.34-.11c6.72-2.06 12.92-5.8 17.95-10.82l18.84-18.84c8.21-8.21 12.73-19.14 12.73-30.79ZM172.38 173.6c-1.62 6.32-2.15 17.09-10.37 17.4-.68 3.65 2.53 5.02 5.44 3.85 2.89-1.33 4.26 1.05 5.23 3.42 4.46.65 11.06-1.49 11.31-6.77-6.66-3.84-8.72-11.14-11.62-17.9Z" />
</svg>