<svg xmlns="http://www.w3.org/2000/svg" xml:space="preserve" viewBox="0 0 460 460">
	<path fill="#94A3B8"
		d="M1 184.469c14.49-2.041 28.656-4.879 42.352-10.11 9.968-3.807 20.413-6.413 30.244-10.516 6.696-2.795 12.793-7.102 18.989-11 7.865-4.95 15.617-10.085 23.312-15.298 6.83-4.627 13.5-9.492 20.267-14.213 11.06-7.716 21.969-15.667 33.259-23.032 14.747-9.62 30.622-17.193 47.37-22.534 19.862-6.333 40.07-11.197 61.21-10.845 8.756.145 17.525-.817 26.29-.839 5.71-.014 11.42.758 17.5 1.204V29.801L461 110.165l-139 80.28v-34.962c0-7.482-.001-7.482-7.624-7.483-8.5 0-17.01.27-25.496-.06-15.106-.587-29.685 1.843-44.068 6.312-12.882 4.003-24.597 10.145-35.611 17.823-11.08 7.724-22.316 15.226-33.374 22.982-10.118 7.096-19.968 14.578-30.179 21.535-4.79 3.263-10.15 5.692-15.4 8.58 7.508 4.947 14.807 9.648 21.993 14.515 12.41 8.406 24.757 16.902 37.114 25.385 9.523 6.538 18.627 13.802 28.626 19.5 12.616 7.19 26.065 12.405 40.75 14.598 18.37 2.744 36.752 1.313 55.124 1.836 3.574.102 5.313-1.07 5.231-5.139-.242-11.992-.086-23.992-.086-36.567 2.844 1.321 5.53 2.291 7.932 3.735 8.39 5.043 16.572 10.443 25.047 15.336 7.18 4.144 14.769 7.578 21.973 11.684 7.503 4.277 14.665 9.15 22.154 13.454 7.754 4.456 15.823 8.364 23.567 12.837 8 4.621 15.737 9.695 23.663 14.447 3.625 2.174 7.414 4.08 11.156 6.054 2.332 1.23 3.805 2.69.703 4.522-8.849 5.229-17.736 10.397-26.703 15.42-7.643 4.283-15.511 8.168-23.108 12.527-7.859 4.51-15.448 9.488-23.271 14.062-7.987 4.67-16.14 9.055-24.175 13.645a5653.024 5653.024 0 0 0-32.95 18.995c-1.73 1.004-3.339 2.219-5.843 3.898v-37.302c-5.356.49-10.208 1.42-15.03 1.28-12.369-.356-24.767-.752-37.073-1.96-10.85-1.064-21.67-2.865-32.356-5.06-8.245-1.693-16.57-3.759-24.312-6.976-13.214-5.492-26.278-11.498-38.87-18.284-8.963-4.83-17.035-11.31-25.525-17.023-9.981-6.717-20.037-13.326-29.959-20.13-6.307-4.325-12.246-9.205-18.67-13.338-18.015-11.589-36.804-21.727-57.725-27.021-12.469-3.156-25.16-5.432-38.188-8.103C1 238.979 1 211.959 1 184.469z" />
</svg>