<svg width="1600" height="560" fill="none" xmlns="http://www.w3.org/2000/svg">
  <g opacity=".65">
    <path fill="#111213" d="M0 560h1600V0H0z" />
    <path transform="matrix(1 0 0 -1 0 560)" fill="url(#a)" d="M0 0h1600v560H0z" />
    <path transform="matrix(1 0 0 -1 0 560)" fill="url(#b)" d="M0 0h1600v560H0z" />
    <path transform="matrix(1 0 0 -1 0 560)" fill="url(#c)" d="M0 0h1600v560H0z" />
    <path transform="matrix(1 0 0 -1 0 560)" fill="url(#d)" d="M0 0h1600v560H0z" />
    <path transform="matrix(1 0 0 -1 0 560)" fill="url(#e)" d="M0 0h1600v560H0z" />
  </g>
  <defs>
    <linearGradient id="a" x1="0" y1="280" x2="1600" y2="280" gradientUnits="userSpaceOnUse">
      <stop stop-color="#0180FF" />
      <stop offset="1" stop-color="#32D583" />
    </linearGradient>
    <linearGradient id="b" x1="112.941" y1="49.091" x2="883.856" y2="314.74" gradientUnits="userSpaceOnUse">
      <stop stop-color="#111213" />
      <stop offset="1" stop-color="#111213" stop-opacity="0" />
    </linearGradient>
    <linearGradient id="c" x1="1342.12" y1="89.091" x2="856.532" y2="285.3" gradientUnits="userSpaceOnUse">
      <stop stop-color="#111213" />
      <stop offset="1" stop-color="#111213" stop-opacity="0" />
    </linearGradient>
    <linearGradient id="d" x1="665.949" y1="-102.162" x2="597.029" y2="501.559" gradientUnits="userSpaceOnUse">
      <stop stop-color="#111213" />
      <stop offset="1" stop-color="#111213" stop-opacity="0" />
    </linearGradient>
    <linearGradient id="e" x1="800" y1="0" x2="800" y2="207.568" gradientUnits="userSpaceOnUse">
      <stop stop-color="#111213" />
      <stop offset="1" stop-color="#111213" stop-opacity="0" />
    </linearGradient>
  </defs>
</svg>